<svg width="804" height="560" viewBox="0 0 804 560" fill="none" xmlns="http://www.w3.org/2000/svg">
<rect width="804" height="560" fill="white"/>
<path d="M669.475 184.948C674.953 172.124 685.216 161.813 704.015 159.692C741.17 155.352 746.922 150.458 760.453 132.87C772.493 117.24 785.344 86.6659 789.672 55.3082C782.834 65.8152 774.69 73.4833 766.244 79.1283C746.464 92.2456 724.54 94.4971 711.951 94.4971C709.166 94.4971 706.852 94.3992 705.1 94.2687C689.909 93.1267 683.15 90.4836 667.161 90.4836C664.691 90.4836 661.984 90.5489 658.991 90.712C644.375 91.3646 634.308 114.206 630.203 125.659C629.824 126.703 629.523 127.584 629.249 128.4C634.439 143.442 640.283 156.462 644.139 165.664C647.042 172.712 654.768 187.559 663.985 206.843C664.664 201.133 666.181 192.649 669.475 184.948Z" fill="#B4975A"/>
<path d="M658.899 82.3587C661.906 82.2282 664.638 82.1303 667.135 82.1303C683.32 82.1303 690.171 84.806 705.179 85.9154C706.891 86.0459 709.179 86.1438 711.925 86.1438C724.357 86.1438 746.072 83.8597 765.355 71.036C785.031 59.5502 799.084 34.1965 804 0C788.064 39.8741 746.647 41.8646 722.828 37.4595C698.106 32.9239 654.376 13.0847 646.571 11.4858C642.008 10.8006 636.439 10.3438 631.21 16.3477C625.967 22.417 621.235 35.1428 618.869 53.3178C618.202 58.5713 617.901 63.7269 617.901 68.8824C617.81 87.2206 621.875 105.526 627.066 121.841C631.014 110.355 641.995 83.305 658.899 82.3587Z" fill="#B4975A"/>
<path d="M662.808 464.524C662.808 450.395 661.409 437.278 659.422 427.717C650.258 383.307 631.184 338.702 614.45 292.204C597.585 244.792 564.457 173.103 564.222 102.426C564.222 93.1594 565.268 84.8061 566.784 76.1591C560.731 93.2573 539.788 161.487 552.221 257.746C556.679 292.269 571.608 337.984 587.362 395.152C602.527 450.232 605.978 521.464 605.155 560C652.336 554.649 662.651 505.964 662.808 464.524Z" fill="#A7A9AC"/>
<path d="M761.995 140.212C748.203 158.322 741.196 163.836 704.172 167.98C673.816 171.7 668.586 204.624 667.423 214.12C671.266 222.342 675.28 231.185 679.267 240.517C686.314 257.126 693.452 274.061 699.4 291.551C699.348 246.065 713.31 240.289 716.592 235.297C720.893 228.803 729.822 225.149 749.001 197.609C769.526 168.144 774.049 127.715 774.951 116.098C770.99 125.855 766.597 134.175 761.995 140.212Z" fill="#B4975A"/>
<path d="M675.986 249.262C661.056 214.25 646.166 185.046 641.211 173.071C633.131 153.068 613.927 114.891 613.744 68.9151C613.744 62.748 614.11 56.4503 614.92 50.1853C617.6 29.0736 625.3 16.7067 631.353 9.887C618.986 5.97137 581.57 13.1174 570.968 68.6867C569.007 78.802 568.144 89.0806 568.131 99.6528C567.882 162.238 599.494 235.721 616.79 283.328C633.354 329.467 653.421 372.964 663.161 419.886C665.475 431.111 667.54 446.773 667.318 462.99C666.782 502.212 661.291 516.406 658.52 521.105C718.422 440.834 707.087 363.272 707.087 363.272C704.603 327.314 690.889 284.046 675.986 249.262Z" fill="#A7A9AC"/>
<path d="M18.6197 87.0792H58.1345C75.7659 87.6611 83.5415 94.9033 78.9126 131.664C75.818 156.235 73.9976 170.558 58.6546 177.056L58.4465 178.641C66.7682 179.223 71.085 188.049 68.9656 204.764L65.2338 234.444H44.7548L47.3683 213.784C48.9546 202.792 47.4334 195.323 41.2962 195.323H25.433L20.479 234.444H0L18.6197 87.0792ZM45.613 161.15C54.4157 161.15 54.9228 154.845 57.0032 138.162C58.6546 125.003 57.3933 121.285 50.645 121.285H34.7819L29.7499 161.15H45.613Z" fill="#A7A9AC"/>
<path d="M70.2529 77.0316L90.5638 93.7776V162.028H32.8843L70.2529 77.0316Z" fill="white"/>
<path d="M70.2093 154.063L95.6635 154.063V237.793H26.9054L70.2093 154.063Z" fill="white"/>
<path d="M46.7107 186.12L55.866 147.365H91.1792L28.4001 237.793L46.7107 186.12Z" fill="white"/>
<path d="M90.8064 206.152L83.3288 231.767H60.5341L105.107 83.0708H138.415L143.511 231.767H121.134L120.299 206.152H90.8064ZM118.224 112.797H118.015L99.4119 177.242H119.812L118.224 112.797Z" fill="#A7A9AC"/>
<path d="M360.907 206.152L353.415 231.767H330.606L375.193 83.0708H408.515L413.612 231.767H391.248L390.385 206.152H360.907ZM388.31 112.797H388.088L369.484 177.242H389.884L388.31 112.797Z" fill="#A7A9AC"/>
<path d="M441.015 231.799H419.084L438.996 83.1034H460.914L441.015 231.799Z" fill="#A7A9AC"/>
<path d="M473.961 83.0708H516.278C535.16 83.6581 543.487 90.9673 538.53 128.068C535.216 152.867 533.267 167.322 516.835 173.881L516.613 175.48C525.525 176.067 530.148 184.975 527.878 201.845L523.881 231.799H501.95L504.749 210.949C506.448 199.854 504.818 192.317 498.246 192.317H481.258L475.953 231.799H454.021L473.961 83.0708ZM502.869 157.827C512.296 157.827 512.839 151.464 515.067 134.627C516.835 121.346 515.485 117.594 508.258 117.594H491.27L485.881 157.827H502.869Z" fill="#A7A9AC"/>
<rect x="153" y="84" width="17.2335" height="147.365" fill="#A7A9AC"/>
<rect x="209.009" y="84" width="17.2335" height="147.365" fill="#A7A9AC"/>
<rect x="157.308" y="177.778" width="40.1904" height="63.1895" transform="rotate(-90 157.308 177.778)" fill="#A7A9AC"/>
<path d="M237.26 180.283L242.899 138.255C249.012 92.4749 265.986 83.73 288.224 83.73C310.476 83.73 325.111 92.4749 318.984 138.255L313.344 180.283C307.217 226.063 290.271 234.775 268.005 234.775C245.754 234.775 231.147 226.063 237.26 180.283ZM291.357 175.91L295.855 142.432C298.807 120.439 295.047 118.253 283.643 118.253C272.225 118.253 268.214 120.439 264.928 142.432L260.43 175.91C257.812 198.099 261.224 200.285 272.642 200.285C284.033 200.285 288.391 198.099 291.357 175.91Z" fill="#A7A9AC"/>
<path d="M53.8501 533.048L34.6472 294.204H63.0159L66.8887 380.679C68.1151 406.907 68.8251 434.531 70.229 463.583H70.5841C72.343 434.531 74.8119 408.303 77.1034 380.679L84.4941 294.204H106.343L112.863 380.679C114.799 406.907 116.558 433.135 117.978 463.583H118.333C119.56 433.816 120.802 408.303 122.029 380.679L126.079 294.204H152.673L132.776 533.015H104.246L99.1303 471.373C97.3713 450.469 95.7899 423.169 94.1924 392.722H93.8373C91.5459 422.488 89.6095 449.43 87.318 471.373L80.9763 533.015H53.8501V533.048Z" fill="#B4975A"/>
<path d="M237.924 408.303C237.924 498.672 221.722 535.872 197.759 535.872C167.809 535.872 158.304 472.087 158.304 412.912C158.304 353.737 170.633 291.38 199.341 291.38C231.582 291.38 237.924 362.955 237.924 408.303ZM186.657 413.626C186.657 469.977 191.772 488.382 198.631 488.382C206.021 488.382 209.555 460.044 209.555 411.127C209.555 370.032 206.731 338.837 198.453 338.837C191.772 338.87 186.657 361.17 186.657 413.626Z" fill="#B4975A"/>
<path d="M251.834 297.743C259.757 294.919 269.794 293.133 279.493 293.133C292.531 293.133 305.037 296.314 313.316 311.214C321.061 325.042 323.175 340.98 323.175 362.241C323.175 385.613 317.366 409.731 305.215 421.059V421.774C312.961 428.85 316.85 443.035 318.947 466.407C321.061 490.135 324.579 523.797 326.871 533.015H298.34C296.937 526.653 294.113 501.821 292.531 476.664C290.772 448.326 287.593 441.574 281.607 441.574H278.96V532.983H251.834V297.743V297.743ZM278.96 399.441H282.478C291.289 399.441 295.694 384.217 295.694 366.851C295.694 349.484 292.354 336.37 283.898 335.656C282.139 335.656 280.025 336.013 278.96 337.085V399.441V399.441Z" fill="#B4975A"/>
<path d="M339.377 294.204H366.68V486.597H395.743V533.015H339.377V294.204Z" fill="#B4975A"/>
<path d="M408.959 297.743C414.946 295.276 424.467 293.133 434.681 293.133C450.705 293.133 461.808 300.567 469.908 315.823C480.478 335.299 485.061 367.208 485.061 411.841C485.061 457.545 479.074 493.706 467.617 513.182C459.339 527.724 447.543 535.158 429.744 535.158C421.643 535.158 413.72 533.372 408.959 532.334V297.743V297.743ZM436.085 489.811C436.973 490.525 438.554 490.525 439.781 490.525C449.285 490.525 456.87 468.549 456.87 409.374C456.87 365.065 451.754 336.727 439.958 336.727C438.554 336.727 437.312 336.727 436.085 337.799V489.811Z" fill="#B4975A"/>
</svg>
