<svg width="749" height="560" viewBox="0 0 749 560" fill="none" xmlns="http://www.w3.org/2000/svg">
<rect width="749" height="560" fill="white"/>
<path d="M623.678 184.948C628.781 172.124 638.341 161.813 655.855 159.692C690.468 155.352 695.826 150.458 708.432 132.87C719.649 117.24 731.62 86.6659 735.652 55.3082C729.282 65.8152 721.695 73.4833 713.827 79.1283C695.4 92.2456 674.976 94.4971 663.248 94.4971C660.653 94.4971 658.498 94.3992 656.866 94.2687C642.714 93.1267 636.417 90.4836 621.522 90.4836C619.22 90.4836 616.699 90.5489 613.91 90.712C600.294 91.3646 590.916 114.206 587.092 125.659C586.739 126.703 586.459 127.584 586.203 128.4C591.038 143.442 596.482 156.462 600.075 165.664C602.779 172.712 609.976 187.559 618.563 206.843C619.196 201.133 620.609 192.649 623.678 184.948Z" fill="#B4975A"/>
<path d="M613.825 82.3587C616.626 82.2282 619.172 82.1303 621.498 82.1303C636.575 82.1303 642.957 84.806 656.939 85.9154C658.534 86.0459 660.666 86.1438 663.223 86.1438C674.805 86.1438 695.035 83.8597 712.999 71.036C731.328 59.5502 744.421 34.1965 749 0C734.154 39.8741 695.571 41.8646 673.38 37.4595C650.35 32.9239 609.611 13.0847 602.34 11.4858C598.09 10.8006 592.902 10.3438 588.03 16.3477C583.146 22.417 578.737 35.1428 576.533 53.3178C575.912 58.5713 575.632 63.7269 575.632 68.8824C575.546 87.2206 579.334 105.526 584.169 121.841C587.847 110.355 598.078 83.305 613.825 82.3587Z" fill="#B4975A"/>
<path d="M617.467 464.524C617.467 450.395 616.163 437.278 614.312 427.717C605.775 383.307 588.006 338.702 572.416 292.204C556.705 244.792 525.844 173.103 525.625 102.426C525.625 93.1594 526.599 84.8061 528.012 76.1591C522.373 93.2573 502.862 161.487 514.444 257.746C518.597 292.269 532.506 337.984 547.181 395.152C561.309 450.232 564.524 521.464 563.757 560C607.711 554.649 617.32 505.964 617.467 464.524Z" fill="#A7A9AC"/>
<path d="M709.869 140.212C697.02 158.322 690.492 163.836 656.001 167.98C627.721 171.7 622.85 204.624 621.766 214.12C625.346 222.342 629.085 231.185 632.8 240.517C639.364 257.126 646.014 274.061 651.556 291.551C651.507 246.065 664.514 240.289 667.571 235.297C671.578 228.803 679.896 225.149 697.763 197.609C716.884 168.144 721.098 127.715 721.938 116.098C718.248 125.855 714.156 134.175 709.869 140.212Z" fill="#B4975A"/>
<path d="M629.743 249.262C615.835 214.25 601.963 185.046 597.347 173.071C589.82 153.068 571.929 114.891 571.759 68.9151C571.759 62.748 572.1 56.4503 572.855 50.1853C575.351 29.0736 582.525 16.7067 588.164 9.887C576.642 5.97137 541.786 13.1174 531.909 68.6867C530.082 78.802 529.278 89.0806 529.266 99.6528C529.035 162.238 558.483 235.721 574.596 283.328C590.027 329.467 608.722 372.964 617.795 419.886C619.951 431.111 621.875 446.773 621.668 462.99C621.169 502.212 616.054 516.406 613.472 521.105C669.276 440.834 658.717 363.272 658.717 363.272C656.403 327.314 643.627 284.046 629.743 249.262Z" fill="#A7A9AC"/>
<path d="M16.2854 87.0792H50.8463C66.2673 87.6611 73.0681 94.9033 69.0195 131.664C66.3128 156.235 64.7207 170.558 51.3012 177.056L51.1192 178.641C58.3976 179.223 62.1733 188.049 60.3196 204.764L57.0556 234.444H39.144L41.4299 213.784C42.8173 202.792 41.4868 195.323 36.119 195.323H22.2445L17.9116 234.444H0L16.2854 87.0792ZM39.8946 161.15C47.5938 161.15 48.0373 154.845 49.8569 138.162C51.3012 125.003 50.1981 121.285 44.2958 121.285H30.4213L26.0202 161.15H39.8946Z" fill="#A7A9AC"/>
<path d="M65.9575 77.0316L85.0265 93.7776V162.028H30.8737L65.9575 77.0316Z" fill="white"/>
<path d="M65.9166 154.063L89.8144 154.063V237.793H25.2603L65.9166 154.063Z" fill="white"/>
<path d="M43.8547 186.12L52.4502 147.365H85.6043L26.6636 237.793L43.8547 186.12Z" fill="white"/>
<path d="M79.4222 206.152L72.8821 231.767H52.9451L91.9301 83.0708H121.062L125.52 231.767H105.948L105.217 206.152H79.4222ZM103.403 112.797H103.22L86.9489 177.242H104.791L103.403 112.797Z" fill="#A7A9AC"/>
<path d="M315.661 206.152L309.108 231.767H289.159L328.156 83.0708H357.301L361.758 231.767H342.199L341.444 206.152H315.661ZM339.629 112.797H339.434L323.163 177.242H341.005L339.629 112.797Z" fill="#A7A9AC"/>
<path d="M385.727 231.799H366.545L383.961 83.1034H403.13L385.727 231.799Z" fill="#A7A9AC"/>
<path d="M414.542 83.0708H451.554C468.069 83.6581 475.352 90.9673 471.016 128.068C468.117 152.867 466.412 167.322 452.041 173.881L451.846 175.48C459.641 176.067 463.684 184.975 461.699 201.845L458.204 231.799H439.022L441.47 210.949C442.956 199.854 441.531 192.317 435.782 192.317H420.924L416.284 231.799H397.102L414.542 83.0708ZM439.826 157.827C448.071 157.827 448.546 151.464 450.494 134.627C452.041 121.346 450.86 117.594 444.539 117.594H429.681L424.967 157.827H439.826Z" fill="#A7A9AC"/>
<rect x="131.915" y="83.73" width="16.1798" height="147.365" fill="#A7A9AC"/>
<rect x="184.499" y="83.73" width="16.1798" height="147.365" fill="#A7A9AC"/>
<rect x="135.96" y="177.508" width="40.1904" height="59.3259" transform="rotate(-90 135.96 177.508)" fill="#A7A9AC"/>
<path d="M207.515 180.283L212.447 138.255C217.794 92.4749 232.64 83.73 252.09 83.73C271.552 83.73 284.352 92.4749 278.994 138.255L274.061 180.283C268.702 226.063 253.88 234.775 234.406 234.775C214.944 234.775 202.168 226.063 207.515 180.283ZM254.83 175.91L258.764 142.432C261.346 120.439 258.058 118.253 248.083 118.253C238.096 118.253 234.589 120.439 231.715 142.432L227.781 175.91C225.491 198.099 228.475 200.285 238.462 200.285C248.424 200.285 252.236 198.099 254.83 175.91Z" fill="#A7A9AC"/>
<path d="M50.1664 533.048L32.277 294.204H58.7051L62.313 380.679C63.4555 406.907 64.1169 434.531 65.4248 463.583H65.7556C67.3942 434.531 69.6942 408.303 71.8289 380.679L78.714 294.204H99.0687L105.142 380.679C106.946 406.907 108.585 433.135 109.908 463.583H110.238C111.381 433.816 112.538 408.303 113.681 380.679L117.454 294.204H142.229L123.693 533.015H97.1144L92.349 471.373C90.7104 450.469 89.2372 423.169 87.7489 392.722H87.4181C85.2834 422.488 83.4795 449.43 81.3448 471.373L75.4369 533.015H50.1664V533.048Z" fill="#B4975A"/>
<path d="M221.648 408.303C221.648 498.672 206.555 535.872 184.231 535.872C156.33 535.872 147.475 472.087 147.475 412.912C147.475 353.737 158.96 291.38 185.704 291.38C215.74 291.38 221.648 362.955 221.648 408.303ZM173.888 413.626C173.888 469.977 178.654 488.382 185.043 488.382C191.928 488.382 195.22 460.044 195.22 411.127C195.22 370.032 192.589 338.837 184.877 338.837C178.654 338.87 173.888 361.17 173.888 413.626Z" fill="#B4975A"/>
<path d="M234.607 297.743C241.988 294.919 251.338 293.133 260.373 293.133C272.52 293.133 284.17 296.314 291.882 311.214C299.098 325.042 301.067 340.98 301.067 362.241C301.067 385.613 295.656 409.731 284.336 421.059V421.774C291.552 428.85 295.175 443.035 297.129 466.407C299.098 490.135 302.375 523.797 304.51 533.015H277.932C276.624 526.653 273.993 501.821 272.52 476.664C270.881 448.326 267.92 441.574 262.342 441.574H259.877V532.983H234.607V297.743V297.743ZM259.877 399.441H263.154C271.362 399.441 275.466 384.217 275.466 366.851C275.466 349.484 272.354 336.37 264.477 335.656C262.839 335.656 260.869 336.013 259.877 337.085V399.441V399.441Z" fill="#B4975A"/>
<path d="M316.161 294.204H341.596V486.597H368.671V533.015H316.161V294.204Z" fill="#B4975A"/>
<path d="M380.983 297.743C386.56 295.276 395.43 293.133 404.946 293.133C419.874 293.133 430.216 300.567 437.763 315.823C447.609 335.299 451.879 367.208 451.879 411.841C451.879 457.545 446.302 493.706 435.628 513.182C427.916 527.724 416.927 535.158 400.346 535.158C392.799 535.158 385.418 533.372 380.983 532.334V297.743V297.743ZM406.254 489.811C407.08 490.525 408.554 490.525 409.696 490.525C418.551 490.525 425.616 468.549 425.616 409.374C425.616 365.065 420.851 336.727 409.862 336.727C408.554 336.727 407.396 336.727 406.254 337.799V489.811Z" fill="#B4975A"/>
</svg>
