<?xml version="1.0" encoding="utf-8"?>
<!-- Generator: Adobe Illustrator 23.0.3, SVG Export Plug-In . SVG Version: 6.00 Build 0)  -->
<svg version="1.1" id="Layer_1" xmlns="http://www.w3.org/2000/svg" xmlns:xlink="http://www.w3.org/1999/xlink" x="0px" y="0px"
	 viewBox="0 0 688.59 174.16" style="enable-background:new 0 0 688.59 174.16;" xml:space="preserve">
<style type="text/css">
	.st0{fill:#B4975A;}
	.st1{fill:#A7A9AC;}
</style>
<g>
	<g>
		<g>
			<g>
				<path class="st0" d="M459.79,34.9"/>
			</g>
		</g>
		<g>
			<path class="st0" d="M582.11,56.68c4.19-3.93,12.04-7.09,26.42-7.74c28.42-1.33,32.82-2.83,43.17-8.22
				c9.21-4.79,19.04-14.16,22.35-23.77c-5.23,3.22-11.46,5.57-17.92,7.3c-15.13,4.02-31.9,4.71-41.53,4.71
				c-2.13,0-3.9-0.03-5.24-0.07c-11.62-0.35-16.79-1.16-29.02-1.16c-1.89,0-3.96,0.02-6.25,0.07c-11.18,0.2-18.88,7.2-22.02,10.71
				c-0.29,0.32-0.52,0.59-0.73,0.84c3.97,4.61,8.44,8.6,11.39,11.42c2.22,2.16,8.13,6.71,15.18,12.62
				C578.43,61.64,579.59,59.04,582.11,56.68z"/>
			<path class="st0" d="M574.02,25.24c2.3-0.04,4.39-0.07,6.3-0.07c12.38,0,17.62,0.82,29.1,1.16c1.31,0.04,3.06,0.07,5.16,0.07
				c9.51,0,26.12-0.7,40.87-4.63C670.5,18.25,681.25,10.48,685.01,0c-12.19,12.22-43.87,12.83-62.09,11.48
				c-18.91-1.39-52.36-7.47-58.33-7.96c-3.49-0.21-7.75-0.35-11.75,1.49c-4.01,1.86-7.63,5.76-9.44,11.33
				c-0.51,1.61-0.74,3.19-0.74,4.77c-0.07,5.62,3.04,11.23,7.01,16.23C552.69,33.82,561.09,25.53,574.02,25.24z"/>
			<path class="st1" d="M577.01,142.36c0-4.33-1.07-8.35-2.59-11.28c-7.01-13.61-21.6-27.28-34.4-41.53
				c-12.9-14.53-38.24-36.5-38.42-58.16c0-2.84,0.8-5.4,1.96-8.05c-4.63,5.24-20.65,26.15-11.14,55.65
				c3.41,10.58,14.83,24.59,26.88,42.11c11.6,16.88,14.24,38.71,13.61,50.52C569,169.98,576.89,155.06,577.01,142.36z"/>
			<path class="st0" d="M652.88,42.97c-10.55,5.55-15.91,7.24-44.23,8.51c-23.22,1.14-27.22,11.23-28.11,14.14
				c2.94,2.52,6.01,5.23,9.06,8.09c5.39,5.09,10.85,10.28,15.4,15.64c-0.04-13.94,10.64-15.71,13.15-17.24
				c3.29-1.99,10.12-3.11,24.79-11.55c15.7-9.03,19.16-21.42,19.85-24.98C659.76,38.57,656.4,41.12,652.88,42.97z"/>
			<path class="st1" d="M587.09,76.39c-11.42-10.73-22.81-19.68-26.6-23.35c-6.18-6.13-20.87-17.83-21.01-31.92
				c0-1.89,0.28-3.82,0.9-5.74c2.05-6.47,7.94-10.26,12.57-12.35c-9.46-1.2-38.08,0.99-46.19,18.02c-1.5,3.1-2.16,6.25-2.17,9.49
				c-0.19,19.18,23.99,41.7,37.22,56.29c12.67,14.14,28.02,27.47,35.47,41.85c1.77,3.44,3.35,8.24,3.18,13.21
				c-0.41,12.02-4.61,16.37-6.73,17.81c45.82-24.6,37.15-48.37,37.15-48.37C608.98,100.31,598.49,87.05,587.09,76.39z"/>
		</g>
	</g>
	<g>
		<g>
			<polygon class="st0" points="441.58,86.04 458.77,35.76 448.43,35.76 431.22,86.04 			"/>
			<polygon class="st0" points="288.45,86 305.64,35.76 295.3,35.76 278.12,86 			"/>
			<polygon class="st0" points="213.28,86 230.46,35.76 220.11,35.76 202.94,86 			"/>
			<path class="st0" d="M431.55,35.76l-13.26,39.18h-8.18l1.42-4.22c1.64-4.82-0.56-8.73-4.91-8.73h-28.79
				c-1.78,0-3.63,0.64-5.31,1.76l9.46-27.99h-10.34l-13.26,39.18h-6.78l4.58-13.49h-10.36l-4.55,13.49h-25.38l3.15-9.35h-11.86
				l-7.25,21.43l-9.8-0.01c-0.84,3.23-0.52,5.93,0.93,8.12c1.45,2.17,4.31,2.98,7.31,2.98c2.87,0,5.67-0.67,8.39-2.85
				c2.73-2.19,3.97-5.03,5.06-8.24l0.34-1.03l112.74,0.03l16.99-50.27H431.55z M399.55,75.62h-31.09c0.73-2.19,1.76-3.95,3.71-3.95
				h25.15C399.29,71.68,400.28,73.43,399.55,75.62z"/>
			<path class="st0" d="M248.75,76.09c-5.65,1.42-9.35,7.33-10.39,10.92c-0.84,3.23-0.53,5.93,0.93,8.12
				c1.45,2.17,6.39,4.23,9.36,4.23c2.9,0,10.06,0,16.08-4.1c2.87-1.96,5.59-5.03,6.67-8.24l0.35-1.03l3.75-11.06l3.16-9.35h-11.88
				L259.87,86h-14.45L248.75,76.09z"/>
			<path class="st0" d="M213.8,35.76h-10.34l-13.41,39.18h-24.44l0.43-1.27c0.66-1.96,2.62-3.54,4.38-3.54h12.3l3.79-11.11
				c-2.08,0-2.2,1.24-4.38,1.24h-18.26c-2.19,0-5.13,1.97-5.95,4.37l-3.49,10.31H141.7c0-5.17-3.38-8.86-8.86-8.86
				c-5.5,0-11.49,3.69-15.14,8.86h-14.57l13.39-39.18h-10.33L89,86h25.44c0.6,4.34,3.84,7.32,8.76,7.32
				c4.94,0,10.28-2.98,13.95-7.32h59.48L213.8,35.76z M131.58,79.47c-0.77,2.12-3,3.84-5,3.84c-2,0-3.02-1.72-2.25-3.84
				c0.74-2.14,2.97-3.87,4.98-3.87C131.31,75.6,132.32,77.33,131.58,79.47z"/>
			<path class="st0" d="M80.71,65.33l-3.47,9.7l-17.42,0.02l6.53-18.97c-0.98,0.23-4.03,4.19-8.37,4.19H39.7
				c-2.16,0-5.11,1.97-5.93,4.37l-0.33,0.97l0,0l-1.82,5.36l-2.6,7.72l0,0L26.54,86H12.09l3.36-9.91
				c-5.68,1.42-9.37,7.33-10.41,10.92c-0.83,3.23-0.53,5.93,0.93,8.12c1.46,2.17,6.39,4.23,9.36,4.23c2.89,0,10.05,0,16.07-4.1
				c2.87-1.96,5.6-5.03,6.68-8.24L38.42,86l3.74-11.06l1.23-3.65h7.36L45.78,86l34.62-0.34c0.73,0,1.49-0.25,2.27-0.78
				c0.75-0.53,1.28-1.19,1.56-2.01l5.92-17.54H80.71z"/>
			<path class="st0" d="M82.68,56.05c-0.38,2.99,1.47,5.4,4.15,5.4c2.69,0,5.18-2.41,5.56-5.4c0.41-2.97-1.44-5.39-4.14-5.39
				C85.56,50.66,83.07,53.07,82.68,56.05z"/>
			<path class="st0" d="M16.94,106.16c-0.36,2.67,1.3,4.82,3.69,4.82c2.39,0,4.59-2.15,4.96-4.82c0.35-2.65-1.3-4.81-3.69-4.81
				C19.51,101.36,17.29,103.51,16.94,106.16z"/>
			<path class="st0" d="M5.6,106.16c-0.36,2.67,1.3,4.82,3.69,4.82c2.38,0,4.61-2.15,4.97-4.82c0.34-2.65-1.3-4.81-3.7-4.81
				C8.18,101.36,5.95,103.51,5.6,106.16z"/>
			<path class="st0" d="M336.13,95.38c-0.35,2.65,1.29,4.8,3.69,4.8c2.39,0,4.62-2.15,4.96-4.8c0.35-2.65-1.29-4.81-3.69-4.81
				C338.7,90.58,336.48,92.73,336.13,95.38z"/>
			<path class="st0" d="M324.79,95.38c-0.35,2.65,1.31,4.8,3.69,4.8c2.39,0,4.6-2.15,4.98-4.8c0.33-2.65-1.31-4.81-3.7-4.81
				C327.35,90.58,325.14,92.73,324.79,95.38z"/>
			<path class="st0" d="M251.89,63.76c-0.39,2.97,1.46,5.39,4.16,5.39c2.68,0,5.17-2.42,5.56-5.39c0.4-2.98-1.45-5.39-4.13-5.39
				C254.78,58.37,252.28,60.78,251.89,63.76z"/>
			<path class="st0" d="M164.83,45.52c-2.7,0-5.19,2.41-5.58,5.39c-0.06,0.43-0.06,0.83-0.04,1.23v0.01c0,0.89-5.52,1.2-5.52,1.2
				l-1.38,4.38c0,0,6.85-0.71,11.51-1.45c0.2-0.02,0.4-0.04,0.59-0.09h0.02h0c2.26-0.53,4.2-2.69,4.52-5.28
				C169.35,47.93,167.5,45.52,164.83,45.52z M165.59,50.97c-0.12,1.03-0.98,1.85-1.91,1.85c-0.91,0-1.55-0.82-1.41-1.85
				c0.13-1.01,0.99-1.84,1.91-1.84C165.09,49.14,165.73,49.96,165.59,50.97z"/>
		</g>
		<g>
			<path class="st1" d="M4.19,154.25l4.05-12.88c4.39-14.03,16.58-16.71,32.55-16.71c15.98,0,26.49,2.68,22.09,16.71l-4.05,12.88
				c-4.4,14.03-16.57,16.7-32.56,16.7C10.29,170.95-0.2,168.28,4.19,154.25z M43.04,152.91l3.23-10.26
				c2.12-6.74-0.58-7.41-8.77-7.41c-8.2,0-11.08,0.67-13.44,7.41l-3.23,10.26c-1.88,6.8,0.57,7.47,8.77,7.47
				C37.78,160.38,40.91,159.71,43.04,152.91z"/>
			<path class="st1" d="M76.86,170.6H61.1l14.3-45.57h24.96l2.28,28.62h0.56l19.68-28.62h25.59l-14.3,45.57h-15.74l12.54-34.95
				h-0.55l-25.93,34.95H90.86l-4.16-34.95h-0.45L76.86,170.6z"/>
			<path class="st1" d="M160.58,162.74l-5.37,7.85h-16.37l32.01-45.57h23.92l3.66,45.57h-16.07l-0.6-7.85H160.58z M180.27,134.13
				h-0.15l-13.36,19.75h14.65L180.27,134.13z"/>
			<path class="st1" d="M218.3,170.6h-15.75l14.29-45.57h26.62l5.94,35h0.63l10.04-35h15.75l-14.29,45.57h-26.85l-5.71-35.01h-0.63
				L218.3,170.6z"/>
			<path class="st1" d="M313.07,162.74l-5.38,7.85h-16.38l32.02-45.57h23.93l3.66,45.57h-16.06l-0.62-7.85H313.07z M332.75,134.13
				h-0.16l-13.36,19.75h14.65L332.75,134.13z"/>
			<path class="st1" d="M370.6,170.6h-15.75l14.3-45.57h15.74L370.6,170.6z"/>
			<path class="st1" d="M394.26,125.02h30.39c13.56,0.18,19.54,2.42,15.98,13.79c-2.38,7.6-3.78,12.03-15.58,14.04l-0.16,0.49
				c6.4,0.18,9.72,2.91,8.09,8.08l-2.87,9.18h-15.75l2.01-6.39c1.22-3.4,0.05-5.71-4.67-5.71h-12.2l-3.81,12.1h-15.75L394.26,125.02
				z M415.02,147.93c6.77,0,7.16-1.95,8.76-7.11c1.27-4.07,0.3-5.22-4.89-5.22h-12.2l-3.87,12.33H415.02z"/>
		</g>
	</g>
</g>
</svg>
